<svg xmlns="http://www.w3.org/2000/svg" version="1.1" xmlns:xlink="http://www.w3.org/1999/xlink" xmlns:svgjs="http://svgjs.com/svgjs" width="2000" height="4000" preserveAspectRatio="none" viewBox="0 0 2000 4000"><g mask="url(&quot;#SvgjsMask2913&quot;)" fill="none"><rect width="2000" height="4000" x="0" y="0" fill="url(#SvgjsLinearGradient2914)"></rect><path d="M159.72 146.49L252.38 199.99L252.38 306.99L159.72 360.49L67.05 306.99L67.05 199.99zM67.05 2553.99L159.72 2607.49L159.72 2714.49L67.05 2767.99L-25.62 2714.49L-25.62 2607.49zM159.72 2714.49L252.38 2767.99L252.38 2874.99L159.72 2928.49L67.05 2874.99L67.05 2767.99zM252.38 627.99L345.05 681.49L345.05 788.49L252.38 841.99L159.72 788.49L159.72 681.49zM345.05 1109.49L437.72 1162.99L437.72 1269.99L345.05 1323.49L252.38 1269.99L252.38 1162.99zM252.38 1590.99L345.05 1644.49L345.05 1751.49L252.38 1804.99L159.72 1751.49L159.72 1644.49zM345.05 3356.49L437.72 3409.99L437.72 3516.99L345.05 3570.49L252.38 3516.99L252.38 3409.99zM437.72 1269.99L530.39 1323.49L530.39 1430.49L437.72 1483.99L345.05 1430.49L345.05 1323.49zM437.72 3516.99L530.39 3570.49L530.39 3677.49L437.72 3730.99L345.05 3677.49L345.05 3570.49zM530.39 3998.49L623.05 4051.99L623.05 4158.99L530.39 4212.49L437.72 4158.99L437.72 4051.99zM715.72 788.49L808.39 841.99L808.39 948.99L715.72 1002.49L623.05 948.99L623.05 841.99zM715.72 1109.49L808.39 1162.99L808.39 1269.99L715.72 1323.49L623.05 1269.99L623.05 1162.99zM623.05 2232.99L715.72 2286.49L715.72 2393.49L623.05 2446.99L530.39 2393.49L530.39 2286.49zM623.05 3837.99L715.72 3891.49L715.72 3998.49L623.05 4051.99L530.39 3998.49L530.39 3891.49zM901.06 467.49L993.72 520.99L993.72 627.99L901.06 681.49L808.39 627.99L808.39 520.99zM901.06 1109.49L993.72 1162.99L993.72 1269.99L901.06 1323.49L808.39 1269.99L808.39 1162.99zM808.39 1911.99L901.06 1965.49L901.06 2072.49L808.39 2125.99L715.72 2072.49L715.72 1965.49zM808.39 3837.99L901.06 3891.49L901.06 3998.49L808.39 4051.99L715.72 3998.49L715.72 3891.49zM901.06 3998.49L993.72 4051.99L993.72 4158.99L901.06 4212.49L808.39 4158.99L808.39 4051.99zM1086.39 788.49L1179.06 841.99L1179.06 948.99L1086.39 1002.49L993.72 948.99L993.72 841.99zM993.72 2232.99L1086.39 2286.49L1086.39 2393.49L993.72 2446.99L901.06 2393.49L901.06 2286.49zM993.72 2553.99L1086.39 2607.49L1086.39 2714.49L993.72 2767.99L901.06 2714.49L901.06 2607.49zM1086.39 3677.49L1179.06 3730.99L1179.06 3837.99L1086.39 3891.49L993.72 3837.99L993.72 3730.99zM1271.73 788.49L1364.39 841.99L1364.39 948.99L1271.73 1002.49L1179.06 948.99L1179.06 841.99zM1179.06 2553.99L1271.73 2607.49L1271.73 2714.49L1179.06 2767.99L1086.39 2714.49L1086.39 2607.49zM1271.73 3356.49L1364.39 3409.99L1364.39 3516.99L1271.73 3570.49L1179.06 3516.99L1179.06 3409.99zM1457.06 1109.49L1549.73 1162.99L1549.73 1269.99L1457.06 1323.49L1364.39 1269.99L1364.39 1162.99zM1642.39 1109.49L1735.06 1162.99L1735.06 1269.99L1642.39 1323.49L1549.73 1269.99L1549.73 1162.99zM1642.39 1430.49L1735.06 1483.99L1735.06 1590.99L1642.39 1644.49L1549.73 1590.99L1549.73 1483.99zM1549.73 1590.99L1642.39 1644.49L1642.39 1751.49L1549.73 1804.99L1457.06 1751.49L1457.06 1644.49zM1549.73 2553.99L1642.39 2607.49L1642.39 2714.49L1549.73 2767.99L1457.06 2714.49L1457.06 2607.49zM1642.39 3035.49L1735.06 3088.99L1735.06 3195.99L1642.39 3249.49L1549.73 3195.99L1549.73 3088.99zM1827.73 3356.49L1920.4 3409.99L1920.4 3516.99L1827.73 3570.49L1735.06 3516.99L1735.06 3409.99zM1827.73 3677.49L1920.4 3730.99L1920.4 3837.99L1827.73 3891.49L1735.06 3837.99L1735.06 3730.99zM1920.4 306.99L2013.06 360.49L2013.06 467.49L1920.4 520.99L1827.73 467.49L1827.73 360.49zM1920.4 627.99L2013.06 681.49L2013.06 788.49L1920.4 841.99L1827.73 788.49L1827.73 681.49zM2013.06 1430.49L2105.73 1483.99L2105.73 1590.99L2013.06 1644.49L1920.4 1590.99L1920.4 1483.99zM2013.06 2714.49L2105.73 2767.99L2105.73 2874.99L2013.06 2928.49L1920.4 2874.99L1920.4 2767.99z" stroke="#03305d" stroke-width="2"></path><path d="M149.02 146.49 a10.7 10.7 0 1 0 21.4 0 a10.7 10.7 0 1 0 -21.4 0zM241.68 199.99 a10.7 10.7 0 1 0 21.4 0 a10.7 10.7 0 1 0 -21.4 0zM241.68 306.99 a10.7 10.7 0 1 0 21.4 0 a10.7 10.7 0 1 0 -21.4 0zM149.02 360.49 a10.7 10.7 0 1 0 21.4 0 a10.7 10.7 0 1 0 -21.4 0zM56.35 306.99 a10.7 10.7 0 1 0 21.4 0 a10.7 10.7 0 1 0 -21.4 0zM56.35 199.99 a10.7 10.7 0 1 0 21.4 0 a10.7 10.7 0 1 0 -21.4 0zM56.35 2553.99 a10.7 10.7 0 1 0 21.4 0 a10.7 10.7 0 1 0 -21.4 0zM149.02 2607.49 a10.7 10.7 0 1 0 21.4 0 a10.7 10.7 0 1 0 -21.4 0zM149.02 2714.49 a10.7 10.7 0 1 0 21.4 0 a10.7 10.7 0 1 0 -21.4 0zM56.35 2767.99 a10.7 10.7 0 1 0 21.4 0 a10.7 10.7 0 1 0 -21.4 0zM-36.32 2714.49 a10.7 10.7 0 1 0 21.4 0 a10.7 10.7 0 1 0 -21.4 0zM-36.32 2607.49 a10.7 10.7 0 1 0 21.4 0 a10.7 10.7 0 1 0 -21.4 0zM241.68 2767.99 a10.7 10.7 0 1 0 21.4 0 a10.7 10.7 0 1 0 -21.4 0zM241.68 2874.99 a10.7 10.7 0 1 0 21.4 0 a10.7 10.7 0 1 0 -21.4 0zM149.02 2928.49 a10.7 10.7 0 1 0 21.4 0 a10.7 10.7 0 1 0 -21.4 0zM56.35 2874.99 a10.7 10.7 0 1 0 21.4 0 a10.7 10.7 0 1 0 -21.4 0zM241.68 627.99 a10.7 10.7 0 1 0 21.4 0 a10.7 10.7 0 1 0 -21.4 0zM334.35 681.49 a10.7 10.7 0 1 0 21.4 0 a10.7 10.7 0 1 0 -21.4 0zM334.35 788.49 a10.7 10.7 0 1 0 21.4 0 a10.7 10.7 0 1 0 -21.4 0zM241.68 841.99 a10.7 10.7 0 1 0 21.4 0 a10.7 10.7 0 1 0 -21.4 0zM149.02 788.49 a10.7 10.7 0 1 0 21.4 0 a10.7 10.7 0 1 0 -21.4 0zM149.02 681.49 a10.7 10.7 0 1 0 21.4 0 a10.7 10.7 0 1 0 -21.4 0zM334.35 1109.49 a10.7 10.7 0 1 0 21.4 0 a10.7 10.7 0 1 0 -21.4 0zM427.02 1162.99 a10.7 10.7 0 1 0 21.4 0 a10.7 10.7 0 1 0 -21.4 0zM427.02 1269.99 a10.7 10.7 0 1 0 21.4 0 a10.7 10.7 0 1 0 -21.4 0zM334.35 1323.49 a10.7 10.7 0 1 0 21.4 0 a10.7 10.7 0 1 0 -21.4 0zM241.68 1269.99 a10.7 10.7 0 1 0 21.4 0 a10.7 10.7 0 1 0 -21.4 0zM241.68 1162.99 a10.7 10.7 0 1 0 21.4 0 a10.7 10.7 0 1 0 -21.4 0zM241.68 1590.99 a10.7 10.7 0 1 0 21.4 0 a10.7 10.7 0 1 0 -21.4 0zM334.35 1644.49 a10.7 10.7 0 1 0 21.4 0 a10.7 10.7 0 1 0 -21.4 0zM334.35 1751.49 a10.7 10.7 0 1 0 21.4 0 a10.7 10.7 0 1 0 -21.4 0zM241.68 1804.99 a10.7 10.7 0 1 0 21.4 0 a10.7 10.7 0 1 0 -21.4 0zM149.02 1751.49 a10.7 10.7 0 1 0 21.4 0 a10.7 10.7 0 1 0 -21.4 0zM149.02 1644.49 a10.7 10.7 0 1 0 21.4 0 a10.7 10.7 0 1 0 -21.4 0zM334.35 3356.49 a10.7 10.7 0 1 0 21.4 0 a10.7 10.7 0 1 0 -21.4 0zM427.02 3409.99 a10.7 10.7 0 1 0 21.4 0 a10.7 10.7 0 1 0 -21.4 0zM427.02 3516.99 a10.7 10.7 0 1 0 21.4 0 a10.7 10.7 0 1 0 -21.4 0zM334.35 3570.49 a10.7 10.7 0 1 0 21.4 0 a10.7 10.7 0 1 0 -21.4 0zM241.68 3516.99 a10.7 10.7 0 1 0 21.4 0 a10.7 10.7 0 1 0 -21.4 0zM241.68 3409.99 a10.7 10.7 0 1 0 21.4 0 a10.7 10.7 0 1 0 -21.4 0zM519.69 1323.49 a10.7 10.7 0 1 0 21.4 0 a10.7 10.7 0 1 0 -21.4 0zM519.69 1430.49 a10.7 10.7 0 1 0 21.4 0 a10.7 10.7 0 1 0 -21.4 0zM427.02 1483.99 a10.7 10.7 0 1 0 21.4 0 a10.7 10.7 0 1 0 -21.4 0zM334.35 1430.49 a10.7 10.7 0 1 0 21.4 0 a10.7 10.7 0 1 0 -21.4 0zM519.69 3570.49 a10.7 10.7 0 1 0 21.4 0 a10.7 10.7 0 1 0 -21.4 0zM519.69 3677.49 a10.7 10.7 0 1 0 21.4 0 a10.7 10.7 0 1 0 -21.4 0zM427.02 3730.99 a10.7 10.7 0 1 0 21.4 0 a10.7 10.7 0 1 0 -21.4 0zM334.35 3677.49 a10.7 10.7 0 1 0 21.4 0 a10.7 10.7 0 1 0 -21.4 0zM519.69 3998.49 a10.7 10.7 0 1 0 21.4 0 a10.7 10.7 0 1 0 -21.4 0zM612.35 4051.99 a10.7 10.7 0 1 0 21.4 0 a10.7 10.7 0 1 0 -21.4 0zM612.35 4158.99 a10.7 10.7 0 1 0 21.4 0 a10.7 10.7 0 1 0 -21.4 0zM519.69 4212.49 a10.7 10.7 0 1 0 21.4 0 a10.7 10.7 0 1 0 -21.4 0zM427.02 4158.99 a10.7 10.7 0 1 0 21.4 0 a10.7 10.7 0 1 0 -21.4 0zM427.02 4051.99 a10.7 10.7 0 1 0 21.4 0 a10.7 10.7 0 1 0 -21.4 0zM705.02 788.49 a10.7 10.7 0 1 0 21.4 0 a10.7 10.7 0 1 0 -21.4 0zM797.69 841.99 a10.7 10.7 0 1 0 21.4 0 a10.7 10.7 0 1 0 -21.4 0zM797.69 948.99 a10.7 10.7 0 1 0 21.4 0 a10.7 10.7 0 1 0 -21.4 0zM705.02 1002.49 a10.7 10.7 0 1 0 21.4 0 a10.7 10.7 0 1 0 -21.4 0zM612.35 948.99 a10.7 10.7 0 1 0 21.4 0 a10.7 10.7 0 1 0 -21.4 0zM612.35 841.99 a10.7 10.7 0 1 0 21.4 0 a10.7 10.7 0 1 0 -21.4 0zM705.02 1109.49 a10.7 10.7 0 1 0 21.4 0 a10.7 10.7 0 1 0 -21.4 0zM797.69 1162.99 a10.7 10.7 0 1 0 21.4 0 a10.7 10.7 0 1 0 -21.4 0zM797.69 1269.99 a10.7 10.7 0 1 0 21.4 0 a10.7 10.7 0 1 0 -21.4 0zM705.02 1323.49 a10.7 10.7 0 1 0 21.4 0 a10.7 10.7 0 1 0 -21.4 0zM612.35 1269.99 a10.7 10.7 0 1 0 21.4 0 a10.7 10.7 0 1 0 -21.4 0zM612.35 1162.99 a10.7 10.7 0 1 0 21.4 0 a10.7 10.7 0 1 0 -21.4 0zM612.35 2232.99 a10.7 10.7 0 1 0 21.4 0 a10.7 10.7 0 1 0 -21.4 0zM705.02 2286.49 a10.7 10.7 0 1 0 21.4 0 a10.7 10.7 0 1 0 -21.4 0zM705.02 2393.49 a10.7 10.7 0 1 0 21.4 0 a10.7 10.7 0 1 0 -21.4 0zM612.35 2446.99 a10.7 10.7 0 1 0 21.4 0 a10.7 10.7 0 1 0 -21.4 0zM519.69 2393.49 a10.7 10.7 0 1 0 21.4 0 a10.7 10.7 0 1 0 -21.4 0zM519.69 2286.49 a10.7 10.7 0 1 0 21.4 0 a10.7 10.7 0 1 0 -21.4 0zM612.35 3837.99 a10.7 10.7 0 1 0 21.4 0 a10.7 10.7 0 1 0 -21.4 0zM705.02 3891.49 a10.7 10.7 0 1 0 21.4 0 a10.7 10.7 0 1 0 -21.4 0zM705.02 3998.49 a10.7 10.7 0 1 0 21.4 0 a10.7 10.7 0 1 0 -21.4 0zM519.69 3891.49 a10.7 10.7 0 1 0 21.4 0 a10.7 10.7 0 1 0 -21.4 0zM890.36 467.49 a10.7 10.7 0 1 0 21.4 0 a10.7 10.7 0 1 0 -21.4 0zM983.02 520.99 a10.7 10.7 0 1 0 21.4 0 a10.7 10.7 0 1 0 -21.4 0zM983.02 627.99 a10.7 10.7 0 1 0 21.4 0 a10.7 10.7 0 1 0 -21.4 0zM890.36 681.49 a10.7 10.7 0 1 0 21.4 0 a10.7 10.7 0 1 0 -21.4 0zM797.69 627.99 a10.7 10.7 0 1 0 21.4 0 a10.7 10.7 0 1 0 -21.4 0zM797.69 520.99 a10.7 10.7 0 1 0 21.4 0 a10.7 10.7 0 1 0 -21.4 0zM890.36 1109.49 a10.7 10.7 0 1 0 21.4 0 a10.7 10.7 0 1 0 -21.4 0zM983.02 1162.99 a10.7 10.7 0 1 0 21.4 0 a10.7 10.7 0 1 0 -21.4 0zM983.02 1269.99 a10.7 10.7 0 1 0 21.4 0 a10.7 10.7 0 1 0 -21.4 0zM890.36 1323.49 a10.7 10.7 0 1 0 21.4 0 a10.7 10.7 0 1 0 -21.4 0zM797.69 1911.99 a10.7 10.7 0 1 0 21.4 0 a10.7 10.7 0 1 0 -21.4 0zM890.36 1965.49 a10.7 10.7 0 1 0 21.4 0 a10.7 10.7 0 1 0 -21.4 0zM890.36 2072.49 a10.7 10.7 0 1 0 21.4 0 a10.7 10.7 0 1 0 -21.4 0zM797.69 2125.99 a10.7 10.7 0 1 0 21.4 0 a10.7 10.7 0 1 0 -21.4 0zM705.02 2072.49 a10.7 10.7 0 1 0 21.4 0 a10.7 10.7 0 1 0 -21.4 0zM705.02 1965.49 a10.7 10.7 0 1 0 21.4 0 a10.7 10.7 0 1 0 -21.4 0zM797.69 3837.99 a10.7 10.7 0 1 0 21.4 0 a10.7 10.7 0 1 0 -21.4 0zM890.36 3891.49 a10.7 10.7 0 1 0 21.4 0 a10.7 10.7 0 1 0 -21.4 0zM890.36 3998.49 a10.7 10.7 0 1 0 21.4 0 a10.7 10.7 0 1 0 -21.4 0zM797.69 4051.99 a10.7 10.7 0 1 0 21.4 0 a10.7 10.7 0 1 0 -21.4 0zM983.02 4051.99 a10.7 10.7 0 1 0 21.4 0 a10.7 10.7 0 1 0 -21.4 0zM983.02 4158.99 a10.7 10.7 0 1 0 21.4 0 a10.7 10.7 0 1 0 -21.4 0zM890.36 4212.49 a10.7 10.7 0 1 0 21.4 0 a10.7 10.7 0 1 0 -21.4 0zM797.69 4158.99 a10.7 10.7 0 1 0 21.4 0 a10.7 10.7 0 1 0 -21.4 0zM1075.69 788.49 a10.7 10.7 0 1 0 21.4 0 a10.7 10.7 0 1 0 -21.4 0zM1168.36 841.99 a10.7 10.7 0 1 0 21.4 0 a10.7 10.7 0 1 0 -21.4 0zM1168.36 948.99 a10.7 10.7 0 1 0 21.4 0 a10.7 10.7 0 1 0 -21.4 0zM1075.69 1002.49 a10.7 10.7 0 1 0 21.4 0 a10.7 10.7 0 1 0 -21.4 0zM983.02 948.99 a10.7 10.7 0 1 0 21.4 0 a10.7 10.7 0 1 0 -21.4 0zM983.02 841.99 a10.7 10.7 0 1 0 21.4 0 a10.7 10.7 0 1 0 -21.4 0zM983.02 2232.99 a10.7 10.7 0 1 0 21.4 0 a10.7 10.7 0 1 0 -21.4 0zM1075.69 2286.49 a10.7 10.7 0 1 0 21.4 0 a10.7 10.7 0 1 0 -21.4 0zM1075.69 2393.49 a10.7 10.7 0 1 0 21.4 0 a10.7 10.7 0 1 0 -21.4 0zM983.02 2446.99 a10.7 10.7 0 1 0 21.4 0 a10.7 10.7 0 1 0 -21.4 0zM890.36 2393.49 a10.7 10.7 0 1 0 21.4 0 a10.7 10.7 0 1 0 -21.4 0zM890.36 2286.49 a10.7 10.7 0 1 0 21.4 0 a10.7 10.7 0 1 0 -21.4 0zM983.02 2553.99 a10.7 10.7 0 1 0 21.4 0 a10.7 10.7 0 1 0 -21.4 0zM1075.69 2607.49 a10.7 10.7 0 1 0 21.4 0 a10.7 10.7 0 1 0 -21.4 0zM1075.69 2714.49 a10.7 10.7 0 1 0 21.4 0 a10.7 10.7 0 1 0 -21.4 0zM983.02 2767.99 a10.7 10.7 0 1 0 21.4 0 a10.7 10.7 0 1 0 -21.4 0zM890.36 2714.49 a10.7 10.7 0 1 0 21.4 0 a10.7 10.7 0 1 0 -21.4 0zM890.36 2607.49 a10.7 10.7 0 1 0 21.4 0 a10.7 10.7 0 1 0 -21.4 0zM1075.69 3677.49 a10.7 10.7 0 1 0 21.4 0 a10.7 10.7 0 1 0 -21.4 0zM1168.36 3730.99 a10.7 10.7 0 1 0 21.4 0 a10.7 10.7 0 1 0 -21.4 0zM1168.36 3837.99 a10.7 10.7 0 1 0 21.4 0 a10.7 10.7 0 1 0 -21.4 0zM1075.69 3891.49 a10.7 10.7 0 1 0 21.4 0 a10.7 10.7 0 1 0 -21.4 0zM983.02 3837.99 a10.7 10.7 0 1 0 21.4 0 a10.7 10.7 0 1 0 -21.4 0zM983.02 3730.99 a10.7 10.7 0 1 0 21.4 0 a10.7 10.7 0 1 0 -21.4 0zM1261.03 788.49 a10.7 10.7 0 1 0 21.4 0 a10.7 10.7 0 1 0 -21.4 0zM1353.69 841.99 a10.7 10.7 0 1 0 21.4 0 a10.7 10.7 0 1 0 -21.4 0zM1353.69 948.99 a10.7 10.7 0 1 0 21.4 0 a10.7 10.7 0 1 0 -21.4 0zM1261.03 1002.49 a10.7 10.7 0 1 0 21.4 0 a10.7 10.7 0 1 0 -21.4 0zM1168.36 2553.99 a10.7 10.7 0 1 0 21.4 0 a10.7 10.7 0 1 0 -21.4 0zM1261.03 2607.49 a10.7 10.7 0 1 0 21.4 0 a10.7 10.7 0 1 0 -21.4 0zM1261.03 2714.49 a10.7 10.7 0 1 0 21.4 0 a10.7 10.7 0 1 0 -21.4 0zM1168.36 2767.99 a10.7 10.7 0 1 0 21.4 0 a10.7 10.7 0 1 0 -21.4 0zM1261.03 3356.49 a10.7 10.7 0 1 0 21.4 0 a10.7 10.7 0 1 0 -21.4 0zM1353.69 3409.99 a10.7 10.7 0 1 0 21.4 0 a10.7 10.7 0 1 0 -21.4 0zM1353.69 3516.99 a10.7 10.7 0 1 0 21.4 0 a10.7 10.7 0 1 0 -21.4 0zM1261.03 3570.49 a10.7 10.7 0 1 0 21.4 0 a10.7 10.7 0 1 0 -21.4 0zM1168.36 3516.99 a10.7 10.7 0 1 0 21.4 0 a10.7 10.7 0 1 0 -21.4 0zM1168.36 3409.99 a10.7 10.7 0 1 0 21.4 0 a10.7 10.7 0 1 0 -21.4 0zM1446.36 1109.49 a10.7 10.7 0 1 0 21.4 0 a10.7 10.7 0 1 0 -21.4 0zM1539.03 1162.99 a10.7 10.7 0 1 0 21.4 0 a10.7 10.7 0 1 0 -21.4 0zM1539.03 1269.99 a10.7 10.7 0 1 0 21.4 0 a10.7 10.7 0 1 0 -21.4 0zM1446.36 1323.49 a10.7 10.7 0 1 0 21.4 0 a10.7 10.7 0 1 0 -21.4 0zM1353.69 1269.99 a10.7 10.7 0 1 0 21.4 0 a10.7 10.7 0 1 0 -21.4 0zM1353.69 1162.99 a10.7 10.7 0 1 0 21.4 0 a10.7 10.7 0 1 0 -21.4 0zM1631.69 1109.49 a10.7 10.7 0 1 0 21.4 0 a10.7 10.7 0 1 0 -21.4 0zM1724.36 1162.99 a10.7 10.7 0 1 0 21.4 0 a10.7 10.7 0 1 0 -21.4 0zM1724.36 1269.99 a10.7 10.7 0 1 0 21.4 0 a10.7 10.7 0 1 0 -21.4 0zM1631.69 1323.49 a10.7 10.7 0 1 0 21.4 0 a10.7 10.7 0 1 0 -21.4 0zM1631.69 1430.49 a10.7 10.7 0 1 0 21.4 0 a10.7 10.7 0 1 0 -21.4 0zM1724.36 1483.99 a10.7 10.7 0 1 0 21.4 0 a10.7 10.7 0 1 0 -21.4 0zM1724.36 1590.99 a10.7 10.7 0 1 0 21.4 0 a10.7 10.7 0 1 0 -21.4 0zM1631.69 1644.49 a10.7 10.7 0 1 0 21.4 0 a10.7 10.7 0 1 0 -21.4 0zM1539.03 1590.99 a10.7 10.7 0 1 0 21.4 0 a10.7 10.7 0 1 0 -21.4 0zM1539.03 1483.99 a10.7 10.7 0 1 0 21.4 0 a10.7 10.7 0 1 0 -21.4 0zM1631.69 1751.49 a10.7 10.7 0 1 0 21.4 0 a10.7 10.7 0 1 0 -21.4 0zM1539.03 1804.99 a10.7 10.7 0 1 0 21.4 0 a10.7 10.7 0 1 0 -21.4 0zM1446.36 1751.49 a10.7 10.7 0 1 0 21.4 0 a10.7 10.7 0 1 0 -21.4 0zM1446.36 1644.49 a10.7 10.7 0 1 0 21.4 0 a10.7 10.7 0 1 0 -21.4 0zM1539.03 2553.99 a10.7 10.7 0 1 0 21.4 0 a10.7 10.7 0 1 0 -21.4 0zM1631.69 2607.49 a10.7 10.7 0 1 0 21.4 0 a10.7 10.7 0 1 0 -21.4 0zM1631.69 2714.49 a10.7 10.7 0 1 0 21.4 0 a10.7 10.7 0 1 0 -21.4 0zM1539.03 2767.99 a10.7 10.7 0 1 0 21.4 0 a10.7 10.7 0 1 0 -21.4 0zM1446.36 2714.49 a10.7 10.7 0 1 0 21.4 0 a10.7 10.7 0 1 0 -21.4 0zM1446.36 2607.49 a10.7 10.7 0 1 0 21.4 0 a10.7 10.7 0 1 0 -21.4 0zM1631.69 3035.49 a10.7 10.7 0 1 0 21.4 0 a10.7 10.7 0 1 0 -21.4 0zM1724.36 3088.99 a10.7 10.7 0 1 0 21.4 0 a10.7 10.7 0 1 0 -21.4 0zM1724.36 3195.99 a10.7 10.7 0 1 0 21.4 0 a10.7 10.7 0 1 0 -21.4 0zM1631.69 3249.49 a10.7 10.7 0 1 0 21.4 0 a10.7 10.7 0 1 0 -21.4 0zM1539.03 3195.99 a10.7 10.7 0 1 0 21.4 0 a10.7 10.7 0 1 0 -21.4 0zM1539.03 3088.99 a10.7 10.7 0 1 0 21.4 0 a10.7 10.7 0 1 0 -21.4 0zM1817.03 3356.49 a10.7 10.7 0 1 0 21.4 0 a10.7 10.7 0 1 0 -21.4 0zM1909.7 3409.99 a10.7 10.7 0 1 0 21.4 0 a10.7 10.7 0 1 0 -21.4 0zM1909.7 3516.99 a10.7 10.7 0 1 0 21.4 0 a10.7 10.7 0 1 0 -21.4 0zM1817.03 3570.49 a10.7 10.7 0 1 0 21.4 0 a10.7 10.7 0 1 0 -21.4 0zM1724.36 3516.99 a10.7 10.7 0 1 0 21.4 0 a10.7 10.7 0 1 0 -21.4 0zM1724.36 3409.99 a10.7 10.7 0 1 0 21.4 0 a10.7 10.7 0 1 0 -21.4 0zM1817.03 3677.49 a10.7 10.7 0 1 0 21.4 0 a10.7 10.7 0 1 0 -21.4 0zM1909.7 3730.99 a10.7 10.7 0 1 0 21.4 0 a10.7 10.7 0 1 0 -21.4 0zM1909.7 3837.99 a10.7 10.7 0 1 0 21.4 0 a10.7 10.7 0 1 0 -21.4 0zM1817.03 3891.49 a10.7 10.7 0 1 0 21.4 0 a10.7 10.7 0 1 0 -21.4 0zM1724.36 3837.99 a10.7 10.7 0 1 0 21.4 0 a10.7 10.7 0 1 0 -21.4 0zM1724.36 3730.99 a10.7 10.7 0 1 0 21.4 0 a10.7 10.7 0 1 0 -21.4 0zM1909.7 306.99 a10.7 10.7 0 1 0 21.4 0 a10.7 10.7 0 1 0 -21.4 0zM2002.36 360.49 a10.7 10.7 0 1 0 21.4 0 a10.7 10.7 0 1 0 -21.4 0zM2002.36 467.49 a10.7 10.7 0 1 0 21.4 0 a10.7 10.7 0 1 0 -21.4 0zM1909.7 520.99 a10.7 10.7 0 1 0 21.4 0 a10.7 10.7 0 1 0 -21.4 0zM1817.03 467.49 a10.7 10.7 0 1 0 21.4 0 a10.7 10.7 0 1 0 -21.4 0zM1817.03 360.49 a10.7 10.7 0 1 0 21.4 0 a10.7 10.7 0 1 0 -21.4 0zM1909.7 627.99 a10.7 10.7 0 1 0 21.4 0 a10.7 10.7 0 1 0 -21.4 0zM2002.36 681.49 a10.7 10.7 0 1 0 21.4 0 a10.7 10.7 0 1 0 -21.4 0zM2002.36 788.49 a10.7 10.7 0 1 0 21.4 0 a10.7 10.7 0 1 0 -21.4 0zM1909.7 841.99 a10.7 10.7 0 1 0 21.4 0 a10.7 10.7 0 1 0 -21.4 0zM1817.03 788.49 a10.7 10.7 0 1 0 21.4 0 a10.7 10.7 0 1 0 -21.4 0zM1817.03 681.49 a10.7 10.7 0 1 0 21.4 0 a10.7 10.7 0 1 0 -21.4 0zM2002.36 1430.49 a10.7 10.7 0 1 0 21.4 0 a10.7 10.7 0 1 0 -21.4 0zM2095.03 1483.99 a10.7 10.7 0 1 0 21.4 0 a10.7 10.7 0 1 0 -21.4 0zM2095.03 1590.99 a10.7 10.7 0 1 0 21.4 0 a10.7 10.7 0 1 0 -21.4 0zM2002.36 1644.49 a10.7 10.7 0 1 0 21.4 0 a10.7 10.7 0 1 0 -21.4 0zM1909.7 1590.99 a10.7 10.7 0 1 0 21.4 0 a10.7 10.7 0 1 0 -21.4 0zM1909.7 1483.99 a10.7 10.7 0 1 0 21.4 0 a10.7 10.7 0 1 0 -21.4 0zM2002.36 2714.49 a10.7 10.7 0 1 0 21.4 0 a10.7 10.7 0 1 0 -21.4 0zM2095.03 2767.99 a10.7 10.7 0 1 0 21.4 0 a10.7 10.7 0 1 0 -21.4 0zM2095.03 2874.99 a10.7 10.7 0 1 0 21.4 0 a10.7 10.7 0 1 0 -21.4 0zM2002.36 2928.49 a10.7 10.7 0 1 0 21.4 0 a10.7 10.7 0 1 0 -21.4 0zM1909.7 2874.99 a10.7 10.7 0 1 0 21.4 0 a10.7 10.7 0 1 0 -21.4 0zM1909.7 2767.99 a10.7 10.7 0 1 0 21.4 0 a10.7 10.7 0 1 0 -21.4 0z" fill="#03305d"></path><path d="M201.26 97.98L352.82 185.48L352.82 360.48L201.26 447.98L49.7 360.48L49.7 185.48zM49.7 360.48L201.26 447.98L201.26 622.98L49.7 710.48L-101.86 622.98L-101.86 447.98zM201.26 1672.98L352.82 1760.48L352.82 1935.48L201.26 2022.98L49.7 1935.48L49.7 1760.48zM201.26 2197.98L352.82 2285.48L352.82 2460.48L201.26 2547.98L49.7 2460.48L49.7 2285.48zM49.7 2460.48L201.26 2547.98L201.26 2722.98L49.7 2810.48L-101.86 2722.98L-101.86 2547.98zM49.7 2985.48L201.26 3072.98L201.26 3247.98L49.7 3335.48L-101.86 3247.98L-101.86 3072.98zM504.38 622.98L655.94 710.48L655.94 885.48L504.38 972.98L352.82 885.48L352.82 710.48zM504.38 1147.98L655.94 1235.48L655.94 1410.48L504.38 1497.98L352.82 1410.48L352.82 1235.48zM352.82 1410.48L504.38 1497.98L504.38 1672.98L352.82 1760.48L201.26 1672.98L201.26 1497.98zM352.82 1935.48L504.38 2022.98L504.38 2197.98L352.82 2285.48L201.26 2197.98L201.26 2022.98zM352.82 3510.48L504.38 3597.98L504.38 3772.98L352.82 3860.48L201.26 3772.98L201.26 3597.98zM655.94 360.48L807.49 447.98L807.49 622.98L655.94 710.48L504.38 622.98L504.38 447.98zM807.49 2722.98L959.05 2810.48L959.05 2985.48L807.49 3072.98L655.94 2985.48L655.94 2810.48zM655.94 2985.48L807.49 3072.98L807.49 3247.98L655.94 3335.48L504.38 3247.98L504.38 3072.98zM807.49 3772.98L959.05 3860.48L959.05 4035.48L807.49 4122.98L655.94 4035.48L655.94 3860.48zM959.05 885.48L1110.61 972.98L1110.61 1147.98L959.05 1235.48L807.49 1147.98L807.49 972.98zM959.05 1410.48L1110.61 1497.98L1110.61 1672.98L959.05 1760.48L807.49 1672.98L807.49 1497.98zM1110.61 2722.98L1262.17 2810.48L1262.17 2985.48L1110.61 3072.98L959.05 2985.48L959.05 2810.48zM1110.61 3772.98L1262.17 3860.48L1262.17 4035.48L1110.61 4122.98L959.05 4035.48L959.05 3860.48zM1262.17 360.48L1413.73 447.98L1413.73 622.98L1262.17 710.48L1110.61 622.98L1110.61 447.98zM1413.73 1672.98L1565.29 1760.48L1565.29 1935.48L1413.73 2022.98L1262.17 1935.48L1262.17 1760.48zM1262.17 3510.48L1413.73 3597.98L1413.73 3772.98L1262.17 3860.48L1110.61 3772.98L1110.61 3597.98zM1565.29 -164.52L1716.85 -77.02L1716.85 97.98L1565.29 185.48L1413.73 97.98L1413.73 -77.02zM1565.29 360.48L1716.85 447.98L1716.85 622.98L1565.29 710.48L1413.73 622.98L1413.73 447.98zM1716.85 622.98L1868.4 710.48L1868.4 885.48L1716.85 972.98L1565.29 885.48L1565.29 710.48zM1716.85 2197.98L1868.4 2285.48L1868.4 2460.48L1716.85 2547.98L1565.29 2460.48L1565.29 2285.48zM1565.29 3510.48L1716.85 3597.98L1716.85 3772.98L1565.29 3860.48L1413.73 3772.98L1413.73 3597.98zM2019.96 622.98L2171.52 710.48L2171.52 885.48L2019.96 972.98L1868.4 885.48L1868.4 710.48zM1868.4 1410.48L2019.96 1497.98L2019.96 1672.98L1868.4 1760.48L1716.85 1672.98L1716.85 1497.98zM1868.4 1935.48L2019.96 2022.98L2019.96 2197.98L1868.4 2285.48L1716.85 2197.98L1716.85 2022.98zM1868.4 2985.48L2019.96 3072.98L2019.96 3247.98L1868.4 3335.48L1716.85 3247.98L1716.85 3072.98zM2019.96 3772.98L2171.52 3860.48L2171.52 4035.48L2019.96 4122.98L1868.4 4035.48L1868.4 3860.48z" stroke="url(#SvgjsLinearGradient2915)" stroke-width="2"></path></g><defs><mask id="SvgjsMask2913"><rect width="2000" height="4000" fill="#ffffff"></rect></mask><linearGradient x1="-25%" y1="12.5%" x2="125%" y2="87.5%" gradientUnits="userSpaceOnUse" id="SvgjsLinearGradient2914"><stop stop-color="rgba(5, 21, 38, 1)" offset="0"></stop><stop stop-color="rgba(1, 11, 26, 1)" offset="1"></stop></linearGradient><linearGradient x1="-500" y1="500" x2="2500" y2="3500" gradientUnits="userSpaceOnUse" id="SvgjsLinearGradient2915"><stop stop-color="#0e2a47" offset="0"></stop><stop stop-color="#00459e" offset="1"></stop></linearGradient></defs></svg>